<svg xmlns="http://www.w3.org/2000/svg" viewBox="0 0 121.29 121.29"><defs><style>.cls-1{fill:#001d26;}.cls-2{fill:#26c9ff;}.cls-3{fill:none;}.cls-4{fill:#d9f5ff;}</style></defs><g id="Layer_2" data-name="Layer 2"><g id="Layer_1-2" data-name="Layer 1"><rect class="cls-1" width="121.29" height="121.29" rx="18.5"/><rect class="cls-2" x="28.96" y="31.92" width="4.67" height="4.67" transform="translate(-0.72 0.68) rotate(-1.22)"/><rect class="cls-2" x="32.66" y="28.54" width="3.69" height="3.69" transform="translate(-0.64 0.74) rotate(-1.22)"/><rect class="cls-2" x="39.77" y="23.96" width="2.43" height="2.43" transform="translate(-0.53 0.88) rotate(-1.22)"/><rect class="cls-2" x="31.34" y="24.53" width="2.64" height="2.64" transform="translate(-0.54 0.7) rotate(-1.22)"/><rect class="cls-2" x="26.56" y="29.32" width="2.64" height="2.64" transform="translate(-0.65 0.6) rotate(-1.22)"/><rect class="cls-2" x="37.81" y="30.37" width="5.24" height="5.24" transform="translate(-0.7 0.87) rotate(-1.22)"/><rect class="cls-2" x="42.97" y="15.36" width="1.68" height="1.68" transform="translate(-0.34 0.94) rotate(-1.22)"/><rect class="cls-2" x="45.09" y="6.51" width="1.68" height="1.68" transform="translate(-0.15 0.98) rotate(-1.22)"/><rect class="cls-2" x="35.27" y="18.28" width="1.68" height="1.68" transform="translate(-0.4 0.78) rotate(-1.22)"/><rect class="cls-2" x="22.38" y="25.09" width="1.68" height="1.68" transform="translate(-0.55 0.5) rotate(-1.22)"/><rect class="cls-2" x="23.81" y="33.56" width="1.68" height="1.68" transform="matrix(1, -0.02, 0.02, 1, -0.73, 0.53)"/><rect class="cls-2" x="25.4" y="14.94" width="1.68" height="1.68" transform="translate(-0.33 0.56) rotate(-1.22)"/><rect class="cls-2" x="41.62" y="36.81" width="1.91" height="1.91" transform="translate(-0.8 0.92) rotate(-1.22)"/><rect class="cls-2" x="35.16" y="38.52" width="3.53" height="3.53" transform="translate(-0.85 0.8) rotate(-1.22)"/><rect class="cls-2" x="33.62" y="43.52" width="1.62" height="1.62" transform="translate(-0.94 0.75) rotate(-1.22)"/><rect class="cls-2" x="31.67" y="38.61" width="1.81" height="1.81" transform="translate(-0.84 0.7) rotate(-1.22)"/><rect class="cls-2" x="44.06" y="35.08" width="1.01" height="1.01" transform="matrix(1, -0.02, 0.02, 1, -0.75, 0.96)"/><path class="cls-3" d="M78.34,105.23h4.48A36.88,36.88,0,0,0,57.2,70.12l-3.65,3.65A32.37,32.37,0,0,1,78.34,105.23Z"/><path class="cls-4" d="M53.55,73.77l-6.86,6.86-2,2c.42,0,.84-.06,1.27-.06A22.65,22.65,0,0,1,68.6,105.23h9.74A32.37,32.37,0,0,0,53.55,73.77Z"/><polygon class="cls-2" points="76.46 22.56 61.89 37.13 46.19 52.83 27.52 71.5 27.52 93.96 46.19 75.29 61.89 59.59 77.77 43.71 83.07 38.41 98.92 22.56 76.46 22.56"/><polygon class="cls-2" points="82.81 105.23 98.7 105.23 98.7 28.46 82.81 44.34 82.81 105.23"/><polygon class="cls-2" points="27.26 105.55 43.15 105.55 43.15 83.94 27.26 99.83 27.26 105.55"/><polygon class="cls-2" points="35.21 48.17 27.26 40.23 27.26 42.83 27.27 65.29 43.15 49.41 43.15 40.23 35.21 48.17"/><path class="cls-4" d="M82.82,105.23H98.69A52.7,52.7,0,0,0,69.32,58l-.81.81L64.37,63l-2,2-1.29,1.29L58,69.3l-.82.82A36.88,36.88,0,0,1,82.82,105.23Z"/></g></g></svg>