<svg xmlns="http://www.w3.org/2000/svg" viewBox="0 0 655.95 371.58"><defs><style>.cls-1{fill:#b9e5f4;}.cls-2{fill:#48bfee;}</style></defs><title>Logo non Bg</title><g id="Layer_2" data-name="Layer 2"><g id="Layer_1-2" data-name="Layer 1"><path class="cls-1" d="M654.13,252.05h-10a1.79,1.79,0,0,0-1.58.93l-29.19,52h-.41l-29-52a1.83,1.83,0,0,0-1.59-.93h-10a1.82,1.82,0,0,0-1.57,2.73l36.07,62.33a1.79,1.79,0,0,1,.24.91v5.07a1.82,1.82,0,0,0,1.82,1.81h8.61a1.81,1.81,0,0,0,1.82-1.81V318a1.71,1.71,0,0,1,.25-.91l36.15-62.33A1.82,1.82,0,0,0,654.13,252.05Z"/><path class="cls-1" d="M445.35,323.68V256.49a1.82,1.82,0,0,0-1.82-1.81h-8.69a1.81,1.81,0,0,0-1.82,1.81v67.19a1.26,1.26,0,0,0,1.26,1.27h9.8A1.27,1.27,0,0,0,445.35,323.68Z"/><path class="cls-1" d="M372.43,324.9a1.27,1.27,0,0,0,1.26-1.27V276.57h.25l29.7,47.73a1.26,1.26,0,0,0,1.07.6h10.37a1.26,1.26,0,0,0,1.07-1.93l-41.93-67.49a1.81,1.81,0,0,0-1.54-.85h-9.5a1.81,1.81,0,0,0-1.82,1.81v67.19a1.27,1.27,0,0,0,1.26,1.27Z"/><rect class="cls-2" x="361.36" y="330.56" width="12.33" height="41.01" rx="1.26"/><path class="cls-2" d="M434.28,330.56a1.26,1.26,0,0,0-1.26,1.27v17.81h-.33l-11.48-18.48a1.28,1.28,0,0,0-1.08-.6H409.77a1.26,1.26,0,0,0-1.07,1.93l23.78,38.23a1.85,1.85,0,0,0,1.55.86h9.5a1.83,1.83,0,0,0,1.82-1.82V331.83a1.27,1.27,0,0,0-1.27-1.27Z"/><path class="cls-1" d="M286.59,323.68V319.4a1.83,1.83,0,0,1,1.82-1.82h47.67a1.81,1.81,0,0,0,1.81-1.82v-7.93a1.82,1.82,0,0,0-1.81-1.82H288.41a1.82,1.82,0,0,1-1.82-1.82V268.06a1.82,1.82,0,0,1,1.82-1.81h50.64a1.82,1.82,0,0,0,1.82-1.82v-7.94a1.81,1.81,0,0,0-1.82-1.81h-63a1.82,1.82,0,0,0-1.82,1.81v67.19a1.27,1.27,0,0,0,1.27,1.27h9.8A1.26,1.26,0,0,0,286.59,323.68Z"/><path class="cls-2" d="M339.05,359.92H288.41a1.82,1.82,0,0,1-1.82-1.82V331.83a1.26,1.26,0,0,0-1.26-1.27h-9.8a1.27,1.27,0,0,0-1.27,1.27v37.93a1.83,1.83,0,0,0,1.82,1.82h63a1.82,1.82,0,0,0,1.82-1.82v-8A1.81,1.81,0,0,0,339.05,359.92Z"/><path class="cls-1" d="M252.13,309h-39a1.83,1.83,0,0,0-1.82,1.82v8a1.83,1.83,0,0,0,1.82,1.82h27a1.82,1.82,0,0,1,1.82,1.82v1.19a1.26,1.26,0,0,0,1.26,1.27h9.47a1.27,1.27,0,0,0,1.27-1.27V310.78A1.83,1.83,0,0,0,252.13,309Z"/><path class="cls-2" d="M243.21,330.51a1.26,1.26,0,0,0-1.26,1.27V333c0,15.95-12.49,26.83-29.79,26.83-17,0-27.31-10.49-30.52-28.31a1.27,1.27,0,0,0-1.24-1.05h-9.88a1.27,1.27,0,0,0-1.26,1.46c3.69,24.55,18.12,39.56,43.07,39.56,30.86,0,41.62-22.8,41.62-38.49v-1.26a1.27,1.27,0,0,0-1.27-1.27Z"/><path class="cls-1" d="M179.45,324.9a1.25,1.25,0,0,0,1.25-1.34c-.09-1.62-.15-3.29-.15-5V301.85c0-28.37,14.48-40.62,31.94-40.62,14.35,0,26.22,8,28.75,24a1.83,1.83,0,0,0,1.79,1.56h8.6a1.81,1.81,0,0,0,1.82-2c-2-18.81-15.76-35.21-40.63-35.21-26.72,0-44.51,19.2-44.51,52.28v16.71c0,1.75,0,3.47.13,5.15a1.27,1.27,0,0,0,1.27,1.19Z"/><path class="cls-1" d="M476.78,324.9a1.26,1.26,0,0,0,1.26-1.33c-.08-1.47-.12-3-.12-4.53v-16.2c0-27.51,12.5-41.56,31.36-41.56,17.91,0,27.77,13,28.58,25.44a1.79,1.79,0,0,0,1.8,1.64h8.62a1.81,1.81,0,0,0,1.83-1.87c-.89-17.76-14.37-36.87-40.83-36.87-26.64,0-43.6,19-43.6,53.14v16.37c0,1.56,0,3.08.1,4.57a1.28,1.28,0,0,0,1.27,1.2Z"/><path class="cls-2" d="M548.36,334.81h-8.59a1.81,1.81,0,0,0-1.83,1.66c-.78,12.67-10.56,23.45-28.25,23.45-16.29,0-27.51-9.14-30.78-28.3a1.27,1.27,0,0,0-1.24-1.06h-9.84a1.27,1.27,0,0,0-1.26,1.45c3.75,25.82,19.28,39.57,42.63,39.57,27.32,0,40-19,41-34.81A1.84,1.84,0,0,0,548.36,334.81Z"/><path class="cls-2" d="M134.91,5.52a1.35,1.35,0,0,0-1.39,1.16c-5.93,40.65-13.7,81.17-23.11,121.15C93.27,200.63,62,267.69,24,331.88Q12.73,351,.24,369.41a1.29,1.29,0,0,0,1.11,2H8.61A1.28,1.28,0,0,0,9.69,371c6.68-8.91,97.4-128.83,136.93-263.82,21.62-73.82,28.22-95.07,29.62-99.94A1.35,1.35,0,0,0,175,5.52Z"/><path class="cls-1" d="M298.24,13.29s12.62-1.86,16.41-2.15c1.58-.12,1.06,1.12.68,1.76C266,89.57,178.3,113.59,143.8,126.2,104.17,140.68,87.7,156,84.18,159.7c-20.28,21.2-14.76,49.93-8,75.31,8,29.95,17.68,59.51,27.62,88.87a1.36,1.36,0,0,0,1.29.93h33.71a1.36,1.36,0,0,0,1.14-2.07c-11.2-18.27-20.87-34-31.95-54.47-10-18.38-19.22-34.5-23.67-54.7-1.69-7.65-2.32-19-.8-26.78,5.15-26.53,31-39.29,53.14-49.12,11.92-5.31,24.15-9.65,36.29-14.36l3.13-1.21c25.61-10.25,104.15-40.76,144.36-110.53l0,0c.25-.29,2.57-4.5,2.73-4.84C325.42,2.13,326.36,0,326.36,0Z"/><path class="cls-2" d="M91.85,190.54c-17.51,49.22-41,96-67.81,141.34Q12.73,351,.24,369.41a1.29,1.29,0,0,0,1.11,2H8.61A1.28,1.28,0,0,0,9.69,371c5.25-7,62.53-82.74,106-180.46Z"/><path class="cls-2" d="M148.55,331.73a1.19,1.19,0,0,0-1.19-1.2H102.83a1.19,1.19,0,0,0-1.19,1.2v38.51a1.19,1.19,0,0,0,1.19,1.2h44.53a1.19,1.19,0,0,0,1.19-1.2V331.73Z"/><path class="cls-2" d="M631.52,331.62a1.1,1.1,0,0,0-.93-1.2H595.87a1.1,1.1,0,0,0-.94,1.2s0,0,0,0v38.57a1.1,1.1,0,0,0,.94,1.21h34.72a1.1,1.1,0,0,0,.93-1.21V331.62Z"/></g></g></svg>