<svg xmlns="http://www.w3.org/2000/svg" viewBox="0 0 58 58"><defs><style>.cls-1,.cls-2{fill:none;}.cls-2{stroke:#d1edf3;}.cls-3{fill:#d1edf3;}</style></defs><g id="Layer_2" data-name="Layer 2"><g id="Layer_1-2" data-name="Layer 1"><g id="Ellipse_27" data-name="Ellipse 27"><circle class="cls-1" cx="29" cy="29" r="29"/><circle class="cls-2" cx="29" cy="29" r="28.5"/></g><path id="linkedin-rect" class="cls-3" d="M20,14.23A5.81,5.81,0,0,0,14.23,20V38A5.81,5.81,0,0,0,20,43.77H38A5.81,5.81,0,0,0,43.77,38V20A5.81,5.81,0,0,0,38,14.23Zm1.46,4.88a2.32,2.32,0,1,1,.28,4.64h-.34A2.34,2.34,0,0,1,19,21.56a2.31,2.31,0,0,1,2.18-2.45Zm13.15,6.15c2.93,0,5.13,1.92,5.13,6V39H35.3V31.82c0-1.81-.64-3-2.26-3a2.46,2.46,0,0,0-2.29,1.63,3.09,3.09,0,0,0-.14,1.09V39H26.15s.05-12.17,0-13.43h4.46v1.91a4.42,4.42,0,0,1,4-2.22Zm-15.41.32h4.46V39H19.22V25.58Z"/></g></g></svg>