<svg xmlns="http://www.w3.org/2000/svg" viewBox="0 0 58 58"><defs><style>.cls-1{fill:#d1edf3;}.cls-2,.cls-3{fill:none;}.cls-3{stroke:#d1edf3;}</style></defs><g id="Layer_2" data-name="Layer 2"><g id="Layer_1-2" data-name="Layer 1"><path id="pinterest" class="cls-1" d="M29,11A17.89,17.89,0,0,1,47,28.8V29A18.2,18.2,0,0,1,29,47a18.65,18.65,0,0,1-5.09-.74c.33-.54.67-1.15,1-1.81A21.09,21.09,0,0,0,26.32,40c.15-.63.37-1.47.66-2.51A3.86,3.86,0,0,0,28.67,39a7.76,7.76,0,0,0,6.67-.27,11,11,0,0,0,5-6.49c1.61-6.11-.46-12-6-14.35-6.68-2-14.13.5-16.73,6.47-1.14,4-1.07,9.12,2.87,10.79a.71.71,0,0,0,.57,0,4.66,4.66,0,0,0,.72-2.43,1.57,1.57,0,0,0-.27-.49c-2.18-2.95-.86-7.34,1.18-9.54,3.47-3,8.86-3.46,12-.62,2.82,3.29,2.18,8.4.37,11.66-1,1.6-2.34,2.8-4.14,2.82a2.82,2.82,0,0,1-2.84-3.46c.42-2.13,1.56-4.39,1.6-6.38-.09-1.65-.92-2.7-2.45-2.72-2.44.31-3.43,2.59-3.46,4.67a7.32,7.32,0,0,0,.58,2.84q-.78,3.15-1.2,5.07c-.43,2.28-1.29,4.66-1.42,6.86,0,.73,0,1.4,0,2A18,18,0,0,1,29,11Z"/><g id="Ellipse_27" data-name="Ellipse 27"><circle class="cls-2" cx="29" cy="29" r="29"/><circle class="cls-3" cx="29" cy="29" r="28.5"/></g></g></g></svg>