<svg xmlns="http://www.w3.org/2000/svg" viewBox="0 0 58 58"><defs><style>.cls-1{fill:#b0b0b0;}.cls-2,.cls-3{fill:none;}.cls-3{stroke:#b0b0b0;}</style></defs><g id="Layer_2" data-name="Layer 2"><g id="Layer_1-2" data-name="Layer 1"><path id="Icon_simple-tiktok" data-name="Icon simple-tiktok" class="cls-1" d="M29.43,11c2,0,3.91,0,5.86,0a9.36,9.36,0,0,0,2.63,6.26,10.59,10.59,0,0,0,6.36,2.68v6A16.13,16.13,0,0,1,38,24.53a17.21,17.21,0,0,1-2.43-1.4c0,4.38,0,8.76,0,13.13a11.56,11.56,0,0,1-2,5.91A11.2,11.2,0,0,1,24.63,47a11,11,0,0,1-6.12-1.55A11.31,11.31,0,0,1,13,36.88c0-.75,0-1.5,0-2.24A11.28,11.28,0,0,1,25.37,24.52l.75.1c0,2.22-.06,4.44-.06,6.66a5.14,5.14,0,0,0-6.56,3.15v0a5.81,5.81,0,0,0-.21,2.42,5.1,5.1,0,0,0,5.25,4.3,5,5,0,0,0,4.15-2.42,3.38,3.38,0,0,0,.62-1.59c.15-2.68.09-5.35.1-8C29.41,23.09,29.38,17.06,29.43,11Z"/><g id="Ellipse_26" data-name="Ellipse 26"><circle class="cls-2" cx="29" cy="29" r="29"/><circle class="cls-3" cx="29" cy="29" r="28.5"/></g></g></g></svg>