<svg xmlns="http://www.w3.org/2000/svg" viewBox="0 0 58 58"><defs><style>.cls-1,.cls-2{fill:none;}.cls-2{stroke:#b0b0b0;}.cls-3{fill:#b0b0b0;}</style></defs><g id="Layer_2" data-name="Layer 2"><g id="Layer_1-2" data-name="Layer 1"><g id="Ellipse_27" data-name="Ellipse 27"><circle class="cls-1" cx="29" cy="29" r="29"/><circle class="cls-2" cx="29" cy="29" r="28.5"/></g><path id="stumbleupon" class="cls-3" d="M30.91,25.55V23.34a1.91,1.91,0,1,0-3.82,0V34.81a7.58,7.58,0,0,1-2.37,5.61A7.74,7.74,0,0,1,19,42.74a8,8,0,0,1-8-8v-5h6.15v4.91A1.81,1.81,0,0,0,17.71,36a1.92,1.92,0,0,0,2.7,0A1.82,1.82,0,0,0,21,34.62V23a7.28,7.28,0,0,1,2.37-5.48,8.18,8.18,0,0,1,11.31,0A7.41,7.41,0,0,1,37,23.06v2.55l-3.65,1.08Zm9.94,4.16H47v5a8,8,0,0,1-8,8h0a7.75,7.75,0,0,1-5.68-2.33,7.64,7.64,0,0,1-2.37-5.63v-5l2.46,1.14L37,29.81v5.06a1.83,1.83,0,0,0,.57,1.34,1.92,1.92,0,0,0,2.7,0,1.82,1.82,0,0,0,.56-1.34Z"/></g></g></svg>