<svg xmlns="http://www.w3.org/2000/svg" viewBox="0 0 58 58"><defs><style>.cls-1,.cls-2{fill:none;}.cls-2{stroke:#b0b0b0;}.cls-3{fill:#b0b0b0;}</style></defs><g id="Layer_2" data-name="Layer 2"><g id="Layer_1-2" data-name="Layer 1"><g id="Ellipse_27" data-name="Ellipse 27"><circle class="cls-1" cx="29" cy="29" r="29"/><circle class="cls-2" cx="29" cy="29" r="28.5"/></g><path id="twitter-bird" class="cls-3" d="M47,17.84a14.85,14.85,0,0,1-3.69,3.81c0,.29,0,.61,0,1a21.19,21.19,0,0,1-3.5,11.61A22,22,0,0,1,35.6,39a18.78,18.78,0,0,1-5.9,3.35,21.59,21.59,0,0,1-7.38,1.24A20.49,20.49,0,0,1,11,40.3a14.84,14.84,0,0,0,1.76.1,14.51,14.51,0,0,0,9.18-3.16,7.13,7.13,0,0,1-4.29-1.47A7.28,7.28,0,0,1,15,32.11,7.39,7.39,0,0,0,18.38,32a7.41,7.41,0,0,1-5.93-7.24v-.09a7.44,7.44,0,0,0,3.35.92A7.39,7.39,0,0,1,13.4,23a7.37,7.37,0,0,1,.11-7.22,21,21,0,0,0,6.73,5.45,20.48,20.48,0,0,0,8.49,2.26,6.77,6.77,0,0,1-.19-1.68,7.13,7.13,0,0,1,2.16-5.22,7.39,7.39,0,0,1,10.45,0l.16.17A14.63,14.63,0,0,0,46,14.91,7.15,7.15,0,0,1,42.76,19,14.6,14.6,0,0,0,47,17.84Z"/></g></g></svg>