<svg xmlns="http://www.w3.org/2000/svg" viewBox="0 0 58 58"><defs><style>.cls-1{fill:#b0b0b0;}.cls-2,.cls-3{fill:none;}.cls-3{stroke:#b0b0b0;}</style></defs><g id="Layer_2" data-name="Layer 2"><g id="Layer_1-2" data-name="Layer 1"><path id="instagram" class="cls-1" d="M35,29a6,6,0,1,0-6,6A6,6,0,0,0,35,29Zm3.23,0a9.19,9.19,0,0,1-9.16,9.23H29a9.19,9.19,0,0,1-9.23-9.16V29a9.19,9.19,0,0,1,9.16-9.23H29a9.19,9.19,0,0,1,9.23,9.16Zm2.53-9.61a2.15,2.15,0,1,1-.62-1.52A2.15,2.15,0,0,1,40.76,19.39ZM29,14.23H24.73c-.56,0-1.31,0-2.26.07a19.47,19.47,0,0,0-2.41.24,9,9,0,0,0-1.68.43A6.11,6.11,0,0,0,15,18.38a9.86,9.86,0,0,0-.43,1.68,19.47,19.47,0,0,0-.24,2.41c0,1-.06,1.7-.07,2.26v2.48c0,1.08,0,1.68,0,1.79s0,.71,0,1.79v2.48c0,.56,0,1.31.07,2.26a19.47,19.47,0,0,0,.24,2.41A9,9,0,0,0,15,39.62,6.11,6.11,0,0,0,18.38,43a9.86,9.86,0,0,0,1.68.43,19.47,19.47,0,0,0,2.41.24c1,0,1.7.06,2.26.07h2.48l1.79,0,1.79,0h2.48c.56,0,1.31,0,2.26-.07a19.47,19.47,0,0,0,2.41-.24A9.86,9.86,0,0,0,39.62,43,6.11,6.11,0,0,0,43,39.62a9,9,0,0,0,.43-1.68,19.47,19.47,0,0,0,.24-2.41c0-1,.06-1.7.07-2.27s0-1.38,0-2.47,0-1.68,0-1.79,0-.71,0-1.79,0-1.91,0-2.48,0-1.31-.07-2.26a19.47,19.47,0,0,0-.24-2.41A9,9,0,0,0,43,18.38,6.14,6.14,0,0,0,39.62,15a9.86,9.86,0,0,0-1.68-.43,19.67,19.67,0,0,0-2.41-.24c-1,0-1.7-.06-2.27-.07H29ZM47,29c0,3.58,0,6-.12,7.43A11,11,0,0,1,44,44a11,11,0,0,1-7.55,2.9C35.05,47,32.58,47,29,47s-6.05,0-7.43-.12A11,11,0,0,1,14,44a11,11,0,0,1-2.9-7.55C11,35.05,11,32.58,11,29s0-6.05.12-7.43A11,11,0,0,1,14,14a11,11,0,0,1,7.55-2.9C23,11,25.42,11,29,11s6,0,7.43.12A11,11,0,0,1,44,14a11,11,0,0,1,2.9,7.55C47,23,47,25.42,47,29Z"/><g id="Ellipse_27" data-name="Ellipse 27"><circle class="cls-2" cx="29" cy="29" r="29"/><circle class="cls-3" cx="29" cy="29" r="28.5"/></g></g></g></svg>