<svg xmlns="http://www.w3.org/2000/svg" viewBox="0 0 58 58"><defs><style>.cls-1{fill:#b0b0b0;}.cls-2,.cls-3{fill:none;}.cls-3{stroke:#b0b0b0;}</style></defs><g id="Layer_2" data-name="Layer 2"><g id="Layer_1-2" data-name="Layer 1"><path id="Icon_simple-youtube" data-name="Icon simple-youtube" class="cls-1" d="M46.24,19.88a4.54,4.54,0,0,0-3.14-3.13C40.3,16,29,16,29,16s-11.26,0-14.09.75a4.54,4.54,0,0,0-3.14,3.13A47.11,47.11,0,0,0,11,28.59a46.86,46.86,0,0,0,.78,8.68,4.54,4.54,0,0,0,3.14,3.13c2.8.75,14.09.75,14.09.75s11.26,0,14.09-.75a4.54,4.54,0,0,0,3.14-3.13A47.71,47.71,0,0,0,47,28.59a47,47,0,0,0-.75-8.7ZM25.41,34V23.19l9.4,5.4Z"/><g id="Ellipse_25" data-name="Ellipse 25"><circle class="cls-2" cx="29" cy="29" r="29"/><circle class="cls-3" cx="29" cy="29" r="28.5"/></g></g></g></svg>